<mxfile host="app.diagrams.net" agent="Mozilla/5.0 (Windows NT 10.0; Win64; x64) AppleWebKit/537.36 (KHTML, like Gecko) Chrome/127.0.0.0 Safari/537.36" version="24.7.7">
  <diagram name="Page-1" id="mJqCjJkcsdnNDaewhTTc">
    <mxGraphModel dx="1600" dy="775" grid="1" gridSize="10" guides="1" tooltips="1" connect="1" arrows="1" fold="1" page="1" pageScale="1" pageWidth="850" pageHeight="1100" math="0" shadow="0">
      <root>
        <mxCell id="0" />
        <mxCell id="1" parent="0" />
        <mxCell id="IS47KzOUH4WITXXJGDpX-1" value="System For&amp;nbsp;Internship/Job Opportunity Portal for the Faculty of Science" style="swimlane;whiteSpace=wrap;html=1;fontStyle=0" vertex="1" parent="1">
          <mxGeometry x="210" y="200" width="530" height="980" as="geometry" />
        </mxCell>
        <mxCell id="IS47KzOUH4WITXXJGDpX-2" value="Create Account" style="ellipse;whiteSpace=wrap;html=1;" vertex="1" parent="IS47KzOUH4WITXXJGDpX-1">
          <mxGeometry x="40" y="50" width="100" height="60" as="geometry" />
        </mxCell>
        <mxCell id="IS47KzOUH4WITXXJGDpX-3" value="Search Jobs/Internship posting" style="ellipse;whiteSpace=wrap;html=1;" vertex="1" parent="IS47KzOUH4WITXXJGDpX-1">
          <mxGeometry x="35" y="190" width="110" height="60" as="geometry" />
        </mxCell>
        <mxCell id="IS47KzOUH4WITXXJGDpX-4" value="Add Profile Details" style="ellipse;whiteSpace=wrap;html=1;" vertex="1" parent="IS47KzOUH4WITXXJGDpX-1">
          <mxGeometry x="210" y="50" width="100" height="60" as="geometry" />
        </mxCell>
        <mxCell id="IS47KzOUH4WITXXJGDpX-5" value="Filter Jobs/Internship postings" style="ellipse;whiteSpace=wrap;html=1;" vertex="1" parent="IS47KzOUH4WITXXJGDpX-1">
          <mxGeometry x="40" y="260" width="100" height="60" as="geometry" />
        </mxCell>
        <mxCell id="IS47KzOUH4WITXXJGDpX-6" value="View Job/Internship Postings" style="ellipse;whiteSpace=wrap;html=1;" vertex="1" parent="IS47KzOUH4WITXXJGDpX-1">
          <mxGeometry x="40" y="330" width="100" height="60" as="geometry" />
        </mxCell>
        <mxCell id="IS47KzOUH4WITXXJGDpX-7" value="Request Lecture Recommendation" style="ellipse;whiteSpace=wrap;html=1;" vertex="1" parent="IS47KzOUH4WITXXJGDpX-1">
          <mxGeometry x="40" y="470" width="100" height="60" as="geometry" />
        </mxCell>
        <mxCell id="IS47KzOUH4WITXXJGDpX-8" value="" style="endArrow=classic;dashed=1;html=1;rounded=0;exitX=1;exitY=0.5;exitDx=0;exitDy=0;strokeColor=default;startArrow=none;startFill=0;endFill=1;" edge="1" parent="IS47KzOUH4WITXXJGDpX-1" source="IS47KzOUH4WITXXJGDpX-2">
          <mxGeometry width="50" height="50" relative="1" as="geometry">
            <mxPoint x="140" y="80" as="sourcePoint" />
            <mxPoint x="210" y="80" as="targetPoint" />
          </mxGeometry>
        </mxCell>
        <mxCell id="IS47KzOUH4WITXXJGDpX-9" value="&amp;lt;&amp;lt;include&amp;gt;&amp;gt;" style="text;html=1;align=center;verticalAlign=middle;resizable=0;points=[];autosize=1;strokeColor=none;fillColor=none;fontSize=10;" vertex="1" parent="IS47KzOUH4WITXXJGDpX-1">
          <mxGeometry x="135" y="60" width="80" height="30" as="geometry" />
        </mxCell>
        <mxCell id="IS47KzOUH4WITXXJGDpX-10" value="" style="endArrow=classic;dashed=1;html=1;rounded=0;exitX=0;exitY=0.5;exitDx=0;exitDy=0;entryX=1;entryY=0.5;entryDx=0;entryDy=0;startArrow=none;startFill=0;endFill=1;" edge="1" parent="IS47KzOUH4WITXXJGDpX-1" source="IS47KzOUH4WITXXJGDpX-27" target="IS47KzOUH4WITXXJGDpX-20">
          <mxGeometry width="50" height="50" relative="1" as="geometry">
            <mxPoint x="176" y="253" as="sourcePoint" />
            <mxPoint x="410" y="740" as="targetPoint" />
          </mxGeometry>
        </mxCell>
        <mxCell id="IS47KzOUH4WITXXJGDpX-11" value="&amp;lt;&amp;lt;include&amp;gt;&amp;gt;" style="text;html=1;align=center;verticalAlign=middle;resizable=0;points=[];autosize=1;strokeColor=none;fillColor=none;rotation=0;fontSize=11;" vertex="1" parent="IS47KzOUH4WITXXJGDpX-1">
          <mxGeometry x="305" y="60" width="80" height="30" as="geometry" />
        </mxCell>
        <mxCell id="IS47KzOUH4WITXXJGDpX-12" value="" style="endArrow=classic;dashed=1;html=1;rounded=0;entryX=1;entryY=1;entryDx=0;entryDy=0;exitX=0.016;exitY=0.331;exitDx=0;exitDy=0;exitPerimeter=0;startArrow=none;startFill=0;endFill=1;" edge="1" parent="IS47KzOUH4WITXXJGDpX-1" source="IS47KzOUH4WITXXJGDpX-24" target="IS47KzOUH4WITXXJGDpX-4">
          <mxGeometry width="50" height="50" relative="1" as="geometry">
            <mxPoint x="204" y="291.98" as="sourcePoint" />
            <mxPoint x="450" y="450" as="targetPoint" />
          </mxGeometry>
        </mxCell>
        <mxCell id="IS47KzOUH4WITXXJGDpX-13" value="&amp;lt;&amp;lt;include&amp;gt;&amp;gt;" style="text;html=1;align=center;verticalAlign=middle;resizable=0;points=[];autosize=1;strokeColor=none;fillColor=none;rotation=15;fontSize=11;" vertex="1" parent="IS47KzOUH4WITXXJGDpX-1">
          <mxGeometry x="285" y="605" width="80" height="30" as="geometry" />
        </mxCell>
        <mxCell id="IS47KzOUH4WITXXJGDpX-14" value="&amp;lt;&amp;lt;include&amp;gt;&amp;gt;" style="text;html=1;align=center;verticalAlign=middle;resizable=0;points=[];autosize=1;strokeColor=none;fillColor=none;rotation=-45;fontSize=11;" vertex="1" parent="IS47KzOUH4WITXXJGDpX-1">
          <mxGeometry x="240" y="470" width="80" height="30" as="geometry" />
        </mxCell>
        <mxCell id="IS47KzOUH4WITXXJGDpX-53" style="rounded=0;orthogonalLoop=1;jettySize=auto;html=1;exitX=0.5;exitY=0;exitDx=0;exitDy=0;endArrow=none;endFill=0;" edge="1" parent="IS47KzOUH4WITXXJGDpX-1" source="IS47KzOUH4WITXXJGDpX-15" target="IS47KzOUH4WITXXJGDpX-24">
          <mxGeometry relative="1" as="geometry" />
        </mxCell>
        <mxCell id="IS47KzOUH4WITXXJGDpX-15" value="Create Account" style="ellipse;whiteSpace=wrap;html=1;" vertex="1" parent="IS47KzOUH4WITXXJGDpX-1">
          <mxGeometry x="40" y="635" width="100" height="60" as="geometry" />
        </mxCell>
        <mxCell id="IS47KzOUH4WITXXJGDpX-16" value="View Student Profiles" style="ellipse;whiteSpace=wrap;html=1;" vertex="1" parent="IS47KzOUH4WITXXJGDpX-1">
          <mxGeometry x="40" y="710" width="100" height="60" as="geometry" />
        </mxCell>
        <mxCell id="IS47KzOUH4WITXXJGDpX-17" value="Post Job Opportunities" style="ellipse;whiteSpace=wrap;html=1;" vertex="1" parent="IS47KzOUH4WITXXJGDpX-1">
          <mxGeometry x="40" y="780" width="100" height="60" as="geometry" />
        </mxCell>
        <mxCell id="IS47KzOUH4WITXXJGDpX-19" value="" style="endArrow=classic;dashed=1;html=1;rounded=0;exitX=1;exitY=0;exitDx=0;exitDy=0;entryX=0.023;entryY=0.733;entryDx=0;entryDy=0;entryPerimeter=0;startArrow=none;startFill=0;jumpStyle=gap;endFill=1;" edge="1" parent="IS47KzOUH4WITXXJGDpX-1" source="IS47KzOUH4WITXXJGDpX-15" target="IS47KzOUH4WITXXJGDpX-29">
          <mxGeometry width="50" height="50" relative="1" as="geometry">
            <mxPoint x="166" y="193" as="sourcePoint" />
            <mxPoint x="213" y="308" as="targetPoint" />
          </mxGeometry>
        </mxCell>
        <mxCell id="IS47KzOUH4WITXXJGDpX-20" value="Set visibility to students" style="ellipse;whiteSpace=wrap;html=1;" vertex="1" parent="IS47KzOUH4WITXXJGDpX-1">
          <mxGeometry x="180" y="590" width="100" height="60" as="geometry" />
        </mxCell>
        <mxCell id="IS47KzOUH4WITXXJGDpX-21" value="Login" style="ellipse;whiteSpace=wrap;html=1;" vertex="1" parent="IS47KzOUH4WITXXJGDpX-1">
          <mxGeometry x="40" y="120" width="100" height="60" as="geometry" />
        </mxCell>
        <mxCell id="IS47KzOUH4WITXXJGDpX-22" value="Verification" style="ellipse;whiteSpace=wrap;html=1;" vertex="1" parent="IS47KzOUH4WITXXJGDpX-1">
          <mxGeometry x="380" y="50" width="100" height="60" as="geometry" />
        </mxCell>
        <mxCell id="IS47KzOUH4WITXXJGDpX-23" value="" style="endArrow=classic;dashed=1;html=1;rounded=0;exitX=1;exitY=0.5;exitDx=0;exitDy=0;entryX=0;entryY=0.5;entryDx=0;entryDy=0;startArrow=none;startFill=0;endFill=1;" edge="1" parent="IS47KzOUH4WITXXJGDpX-1" source="IS47KzOUH4WITXXJGDpX-4" target="IS47KzOUH4WITXXJGDpX-22">
          <mxGeometry width="50" height="50" relative="1" as="geometry">
            <mxPoint x="146" y="233" as="sourcePoint" />
            <mxPoint x="224.4850456063059" y="268.883000090236" as="targetPoint" />
            <Array as="points">
              <mxPoint x="350" y="80" />
            </Array>
          </mxGeometry>
        </mxCell>
        <mxCell id="IS47KzOUH4WITXXJGDpX-24" value="Manage Profile Details" style="ellipse;whiteSpace=wrap;html=1;" vertex="1" parent="IS47KzOUH4WITXXJGDpX-1">
          <mxGeometry x="380" y="140" width="100" height="60" as="geometry" />
        </mxCell>
        <mxCell id="IS47KzOUH4WITXXJGDpX-25" value="&amp;lt;&amp;lt;extends&amp;gt;&amp;gt;" style="text;html=1;align=center;verticalAlign=middle;resizable=0;points=[];autosize=1;strokeColor=none;fillColor=none;rotation=35;fontSize=11;" vertex="1" parent="IS47KzOUH4WITXXJGDpX-1">
          <mxGeometry x="300" y="110" width="90" height="30" as="geometry" />
        </mxCell>
        <mxCell id="IS47KzOUH4WITXXJGDpX-27" value="Provide Recomendation" style="ellipse;whiteSpace=wrap;html=1;" vertex="1" parent="IS47KzOUH4WITXXJGDpX-1">
          <mxGeometry x="360" y="605" width="100" height="60" as="geometry" />
        </mxCell>
        <mxCell id="IS47KzOUH4WITXXJGDpX-28" value="Manage Job Opportunities" style="ellipse;whiteSpace=wrap;html=1;" vertex="1" parent="IS47KzOUH4WITXXJGDpX-1">
          <mxGeometry x="40" y="860" width="100" height="60" as="geometry" />
        </mxCell>
        <mxCell id="IS47KzOUH4WITXXJGDpX-29" value="Account Approve" style="ellipse;whiteSpace=wrap;html=1;" vertex="1" parent="IS47KzOUH4WITXXJGDpX-1">
          <mxGeometry x="410" y="320" width="100" height="60" as="geometry" />
        </mxCell>
        <mxCell id="IS47KzOUH4WITXXJGDpX-30" value="Scrape Job Opportunities" style="ellipse;whiteSpace=wrap;html=1;" vertex="1" parent="IS47KzOUH4WITXXJGDpX-1">
          <mxGeometry x="360" y="740" width="100" height="60" as="geometry" />
        </mxCell>
        <mxCell id="IS47KzOUH4WITXXJGDpX-51" value="View Employers" style="ellipse;whiteSpace=wrap;html=1;" vertex="1" parent="IS47KzOUH4WITXXJGDpX-1">
          <mxGeometry x="40" y="395" width="100" height="60" as="geometry" />
        </mxCell>
        <mxCell id="IS47KzOUH4WITXXJGDpX-55" value="View User Feedback" style="ellipse;whiteSpace=wrap;html=1;" vertex="1" parent="IS47KzOUH4WITXXJGDpX-1">
          <mxGeometry x="360" y="540" width="100" height="60" as="geometry" />
        </mxCell>
        <mxCell id="IS47KzOUH4WITXXJGDpX-61" value="" style="endArrow=none;dashed=1;html=1;rounded=0;exitX=1;exitY=0.5;exitDx=0;exitDy=0;startArrow=classic;startFill=1;jumpStyle=gap;endFill=0;" edge="1" parent="IS47KzOUH4WITXXJGDpX-1" source="IS47KzOUH4WITXXJGDpX-17" target="IS47KzOUH4WITXXJGDpX-30">
          <mxGeometry width="50" height="50" relative="1" as="geometry">
            <mxPoint x="135" y="654" as="sourcePoint" />
            <mxPoint x="422" y="374" as="targetPoint" />
          </mxGeometry>
        </mxCell>
        <mxCell id="IS47KzOUH4WITXXJGDpX-60" value="&amp;lt;&amp;lt;include&amp;gt;&amp;gt;" style="text;html=1;align=center;verticalAlign=middle;resizable=0;points=[];autosize=1;strokeColor=none;fillColor=none;rotation=-10;fontSize=11;" vertex="1" parent="IS47KzOUH4WITXXJGDpX-1">
          <mxGeometry x="215" y="766" width="80" height="30" as="geometry" />
        </mxCell>
        <mxCell id="IS47KzOUH4WITXXJGDpX-65" value="Reply to inquiries" style="ellipse;whiteSpace=wrap;html=1;" vertex="1" parent="IS47KzOUH4WITXXJGDpX-1">
          <mxGeometry x="360" y="470" width="100" height="60" as="geometry" />
        </mxCell>
        <mxCell id="IS47KzOUH4WITXXJGDpX-31" value="Student" style="shape=umlActor;verticalLabelPosition=bottom;verticalAlign=top;html=1;outlineConnect=0;rotation=-2;" vertex="1" parent="1">
          <mxGeometry x="90" y="300" width="30" height="60" as="geometry" />
        </mxCell>
        <mxCell id="IS47KzOUH4WITXXJGDpX-32" value="Employer" style="shape=umlActor;verticalLabelPosition=bottom;verticalAlign=top;html=1;outlineConnect=0;" vertex="1" parent="1">
          <mxGeometry x="90" y="900" width="30" height="60" as="geometry" />
        </mxCell>
        <mxCell id="IS47KzOUH4WITXXJGDpX-33" value="" style="endArrow=none;html=1;rounded=0;entryX=0;entryY=0.5;entryDx=0;entryDy=0;endFill=0;" edge="1" parent="1" source="IS47KzOUH4WITXXJGDpX-31" target="IS47KzOUH4WITXXJGDpX-2">
          <mxGeometry width="50" height="50" relative="1" as="geometry">
            <mxPoint x="400" y="280" as="sourcePoint" />
            <mxPoint x="420" y="240" as="targetPoint" />
            <Array as="points" />
          </mxGeometry>
        </mxCell>
        <mxCell id="IS47KzOUH4WITXXJGDpX-34" value="" style="endArrow=none;html=1;rounded=0;entryX=-0.009;entryY=0.35;entryDx=0;entryDy=0;entryPerimeter=0;endFill=0;" edge="1" parent="1" source="IS47KzOUH4WITXXJGDpX-31" target="IS47KzOUH4WITXXJGDpX-3">
          <mxGeometry width="50" height="50" relative="1" as="geometry">
            <mxPoint x="130" y="333" as="sourcePoint" />
            <mxPoint x="280" y="370" as="targetPoint" />
            <Array as="points" />
          </mxGeometry>
        </mxCell>
        <mxCell id="IS47KzOUH4WITXXJGDpX-35" value="" style="endArrow=none;html=1;rounded=0;entryX=0;entryY=0.5;entryDx=0;entryDy=0;endFill=0;" edge="1" parent="1" target="IS47KzOUH4WITXXJGDpX-5">
          <mxGeometry width="50" height="50" relative="1" as="geometry">
            <mxPoint x="120" y="340" as="sourcePoint" />
            <mxPoint x="270" y="440" as="targetPoint" />
            <Array as="points" />
          </mxGeometry>
        </mxCell>
        <mxCell id="IS47KzOUH4WITXXJGDpX-36" value="" style="endArrow=none;html=1;rounded=0;entryX=0;entryY=0.317;entryDx=0;entryDy=0;entryPerimeter=0;endFill=0;" edge="1" parent="1" source="IS47KzOUH4WITXXJGDpX-31" target="IS47KzOUH4WITXXJGDpX-6">
          <mxGeometry width="50" height="50" relative="1" as="geometry">
            <mxPoint x="140" y="353" as="sourcePoint" />
            <mxPoint x="300" y="390" as="targetPoint" />
            <Array as="points" />
          </mxGeometry>
        </mxCell>
        <mxCell id="IS47KzOUH4WITXXJGDpX-37" value="" style="endArrow=none;html=1;rounded=0;exitX=1;exitY=1;exitDx=0;exitDy=0;exitPerimeter=0;endFill=0;entryX=0.023;entryY=0.344;entryDx=0;entryDy=0;entryPerimeter=0;" edge="1" parent="1" source="IS47KzOUH4WITXXJGDpX-31" target="IS47KzOUH4WITXXJGDpX-7">
          <mxGeometry width="50" height="50" relative="1" as="geometry">
            <mxPoint x="150" y="363" as="sourcePoint" />
            <mxPoint x="260" y="690" as="targetPoint" />
            <Array as="points" />
          </mxGeometry>
        </mxCell>
        <mxCell id="IS47KzOUH4WITXXJGDpX-38" value="" style="endArrow=none;html=1;rounded=0;entryX=0;entryY=0.617;entryDx=0;entryDy=0;entryPerimeter=0;endFill=0;startArrow=none;startFill=0;" edge="1" parent="1" source="IS47KzOUH4WITXXJGDpX-32" target="IS47KzOUH4WITXXJGDpX-15">
          <mxGeometry width="50" height="50" relative="1" as="geometry">
            <mxPoint x="110" y="740" as="sourcePoint" />
            <mxPoint x="289" y="649" as="targetPoint" />
            <Array as="points" />
          </mxGeometry>
        </mxCell>
        <mxCell id="IS47KzOUH4WITXXJGDpX-40" value="" style="endArrow=none;html=1;rounded=0;entryX=0.03;entryY=0.4;entryDx=0;entryDy=0;entryPerimeter=0;exitX=1;exitY=0.3333333333333333;exitDx=0;exitDy=0;exitPerimeter=0;endFill=0;startArrow=none;startFill=0;" edge="1" parent="1" source="IS47KzOUH4WITXXJGDpX-32" target="IS47KzOUH4WITXXJGDpX-16">
          <mxGeometry width="50" height="50" relative="1" as="geometry">
            <mxPoint x="140" y="940" as="sourcePoint" />
            <mxPoint x="300" y="837" as="targetPoint" />
            <Array as="points" />
          </mxGeometry>
        </mxCell>
        <mxCell id="IS47KzOUH4WITXXJGDpX-41" value="" style="endArrow=none;html=1;rounded=0;entryX=0.04;entryY=0.288;entryDx=0;entryDy=0;entryPerimeter=0;endFill=0;startArrow=none;startFill=0;" edge="1" parent="1" target="IS47KzOUH4WITXXJGDpX-17">
          <mxGeometry width="50" height="50" relative="1" as="geometry">
            <mxPoint x="120" y="920" as="sourcePoint" />
            <mxPoint x="310" y="847" as="targetPoint" />
            <Array as="points" />
          </mxGeometry>
        </mxCell>
        <mxCell id="IS47KzOUH4WITXXJGDpX-42" value="Lecture" style="shape=umlActor;verticalLabelPosition=bottom;verticalAlign=top;html=1;outlineConnect=0;" vertex="1" parent="1">
          <mxGeometry x="800" y="820" width="30" height="60" as="geometry" />
        </mxCell>
        <mxCell id="IS47KzOUH4WITXXJGDpX-43" value="" style="endArrow=none;html=1;rounded=0;entryX=1;entryY=1;entryDx=0;entryDy=0;jumpStyle=arc;endFill=0;" edge="1" parent="1" source="IS47KzOUH4WITXXJGDpX-42" target="IS47KzOUH4WITXXJGDpX-2">
          <mxGeometry width="50" height="50" relative="1" as="geometry">
            <mxPoint x="130" y="930" as="sourcePoint" />
            <mxPoint x="690" y="620" as="targetPoint" />
            <Array as="points" />
          </mxGeometry>
        </mxCell>
        <mxCell id="IS47KzOUH4WITXXJGDpX-44" value="" style="endArrow=none;html=1;rounded=0;entryX=0;entryY=0.378;entryDx=0;entryDy=0;entryPerimeter=0;endFill=0;" edge="1" parent="1" target="IS47KzOUH4WITXXJGDpX-21">
          <mxGeometry width="50" height="50" relative="1" as="geometry">
            <mxPoint x="130" y="336" as="sourcePoint" />
            <mxPoint x="276" y="301" as="targetPoint" />
            <Array as="points" />
          </mxGeometry>
        </mxCell>
        <mxCell id="IS47KzOUH4WITXXJGDpX-45" value="" style="endArrow=none;html=1;rounded=0;entryX=1;entryY=0.5;entryDx=0;entryDy=0;endFill=0;startArrow=none;startFill=0;" edge="1" parent="1" source="IS47KzOUH4WITXXJGDpX-42" target="IS47KzOUH4WITXXJGDpX-16">
          <mxGeometry width="50" height="50" relative="1" as="geometry">
            <mxPoint x="830" y="931" as="sourcePoint" />
            <mxPoint x="470" y="830" as="targetPoint" />
            <Array as="points" />
          </mxGeometry>
        </mxCell>
        <mxCell id="IS47KzOUH4WITXXJGDpX-46" value="" style="endArrow=none;html=1;rounded=0;entryX=0.063;entryY=0.244;entryDx=0;entryDy=0;entryPerimeter=0;endFill=0;startArrow=none;startFill=0;" edge="1" parent="1" target="IS47KzOUH4WITXXJGDpX-28">
          <mxGeometry width="50" height="50" relative="1" as="geometry">
            <mxPoint x="130" y="930" as="sourcePoint" />
            <mxPoint x="284" y="1000" as="targetPoint" />
            <Array as="points" />
          </mxGeometry>
        </mxCell>
        <mxCell id="IS47KzOUH4WITXXJGDpX-47" value="Administrator" style="shape=umlActor;verticalLabelPosition=bottom;verticalAlign=top;html=1;outlineConnect=0;" vertex="1" parent="1">
          <mxGeometry x="790" y="450" width="30" height="60" as="geometry" />
        </mxCell>
        <mxCell id="IS47KzOUH4WITXXJGDpX-49" value="" style="endArrow=none;html=1;rounded=0;entryX=1;entryY=0.5;entryDx=0;entryDy=0;endFill=0;startArrow=none;startFill=0;" edge="1" parent="1" source="IS47KzOUH4WITXXJGDpX-54" target="IS47KzOUH4WITXXJGDpX-30">
          <mxGeometry width="50" height="50" relative="1" as="geometry">
            <mxPoint x="770" y="1070" as="sourcePoint" />
            <mxPoint x="380" y="950" as="targetPoint" />
            <Array as="points" />
          </mxGeometry>
        </mxCell>
        <mxCell id="IS47KzOUH4WITXXJGDpX-50" value="" style="endArrow=none;html=1;rounded=0;endFill=0;" edge="1" parent="1" target="IS47KzOUH4WITXXJGDpX-29">
          <mxGeometry width="50" height="50" relative="1" as="geometry">
            <mxPoint x="780" y="480" as="sourcePoint" />
            <mxPoint x="366" y="311" as="targetPoint" />
            <Array as="points" />
          </mxGeometry>
        </mxCell>
        <mxCell id="IS47KzOUH4WITXXJGDpX-26" value="" style="endArrow=none;html=1;rounded=0;entryX=1.023;entryY=0.367;entryDx=0;entryDy=0;entryPerimeter=0;exitX=0;exitY=0.3333333333333333;exitDx=0;exitDy=0;exitPerimeter=0;endFill=0;startArrow=none;startFill=0;" edge="1" parent="1" target="IS47KzOUH4WITXXJGDpX-27" source="IS47KzOUH4WITXXJGDpX-42">
          <mxGeometry width="50" height="50" relative="1" as="geometry">
            <mxPoint x="770" y="840" as="sourcePoint" />
            <mxPoint x="835" y="1371" as="targetPoint" />
            <Array as="points" />
          </mxGeometry>
        </mxCell>
        <mxCell id="IS47KzOUH4WITXXJGDpX-52" style="rounded=0;orthogonalLoop=1;jettySize=auto;html=1;exitX=0;exitY=0.5;exitDx=0;exitDy=0;startArrow=none;startFill=0;endArrow=none;endFill=0;" edge="1" parent="1" source="IS47KzOUH4WITXXJGDpX-51" target="IS47KzOUH4WITXXJGDpX-31">
          <mxGeometry relative="1" as="geometry" />
        </mxCell>
        <mxCell id="IS47KzOUH4WITXXJGDpX-54" value="Web Scraper System" style="shape=umlActor;verticalLabelPosition=bottom;verticalAlign=top;html=1;outlineConnect=0;" vertex="1" parent="1">
          <mxGeometry x="800" y="940" width="30" height="60" as="geometry" />
        </mxCell>
        <mxCell id="IS47KzOUH4WITXXJGDpX-56" style="rounded=0;orthogonalLoop=1;jettySize=auto;html=1;exitX=1;exitY=0.5;exitDx=0;exitDy=0;endArrow=none;endFill=0;" edge="1" parent="1" source="IS47KzOUH4WITXXJGDpX-55" target="IS47KzOUH4WITXXJGDpX-42">
          <mxGeometry relative="1" as="geometry" />
        </mxCell>
        <mxCell id="IS47KzOUH4WITXXJGDpX-66" style="rounded=0;orthogonalLoop=1;jettySize=auto;html=1;exitX=1;exitY=0.5;exitDx=0;exitDy=0;entryX=0;entryY=0.3333333333333333;entryDx=0;entryDy=0;entryPerimeter=0;endArrow=none;endFill=0;" edge="1" parent="1" source="IS47KzOUH4WITXXJGDpX-65" target="IS47KzOUH4WITXXJGDpX-42">
          <mxGeometry relative="1" as="geometry" />
        </mxCell>
      </root>
    </mxGraphModel>
  </diagram>
</mxfile>
